<?xml version="1.0" encoding="UTF-8" standalone="no"?>
<!-- Created with Inkscape (http://www.inkscape.org/) -->

<svg
   xmlns:dc="http://purl.org/dc/elements/1.1/"
   xmlns:cc="http://creativecommons.org/ns#"
   xmlns:rdf="http://www.w3.org/1999/02/22-rdf-syntax-ns#"
   xmlns:svg="http://www.w3.org/2000/svg"
   xmlns="http://www.w3.org/2000/svg"
   xmlns:sodipodi="http://sodipodi.sourceforge.net/DTD/sodipodi-0.dtd"
   xmlns:inkscape="http://www.inkscape.org/namespaces/inkscape"
   width="744.09448819"
   height="1052.3622047"
   id="svg2"
   version="1.1"
   inkscape:version="0.48.4 r9939"
   sodipodi:docname="New document 1">
  <defs
     id="defs4" />
  <sodipodi:namedview
     id="base"
     pagecolor="#ffffff"
     bordercolor="#666666"
     borderopacity="1.0"
     inkscape:pageopacity="0.0"
     inkscape:pageshadow="2"
     inkscape:zoom="0.49497475"
     inkscape:cx="397.38541"
     inkscape:cy="509.12111"
     inkscape:document-units="px"
     inkscape:current-layer="layer1"
     showgrid="false"
     inkscape:window-width="1920"
     inkscape:window-height="1044"
     inkscape:window-x="1920"
     inkscape:window-y="0"
     inkscape:window-maximized="1" />
  <metadata
     id="metadata7">
    <rdf:RDF>
      <cc:Work
         rdf:about="">
        <dc:format>image/svg+xml</dc:format>
        <dc:type
           rdf:resource="http://purl.org/dc/dcmitype/StillImage" />
        <dc:title></dc:title>
      </cc:Work>
    </rdf:RDF>
  </metadata>
  <g
     inkscape:label="Layer 1"
     inkscape:groupmode="layer"
     id="layer1">
    <path
       sodipodi:type="arc"
       style="fill:none;stroke:#00e2f6;stroke-width:10;stroke-linecap:round;stroke-miterlimit:4;stroke-opacity:1;stroke-dasharray:none"
       id="path3004"
       sodipodi:cx="440"
       sodipodi:cy="492.36218"
       sodipodi:rx="122.85714"
       sodipodi:ry="140"
       d="M 499.28952,369.74362 A 122.85714,140 0 1 1 405.30771,358.05978"
       sodipodi:start="5.2159974"
       sodipodi:end="10.709301"
       sodipodi:open="true" />
    <path
       style="fill:none;stroke:#000000;stroke-width:1px;stroke-linecap:butt;stroke-linejoin:miter;stroke-opacity:1"
       d="m 411.42857,358.07647 c 0.95238,-3.80953 1.90476,-7.61905 2.85714,-11.42857 0,-1.90477 -0.46197,-3.8664 0,-5.71429 0.51651,-2.066 2.18371,-3.69398 2.85715,-5.71428 0.85714,-2.57143 -0.85715,-6 0,-8.57143 0.42591,-1.27776 2.43122,-1.57939 2.85714,-2.85715 0.78878,-2.36634 -0.90849,-12.46873 0,-14.28571 0.60234,-1.20468 2.2548,-1.65247 2.85714,-2.85714 0.84211,-1.68422 -0.82959,-15.48367 0,-17.14286 0.42592,-0.85184 2.18371,0.67343 2.85715,0 1.90099,-1.90099 -1.90099,-3.8133 0,-5.71429 0.67343,-0.67343 2.43122,0.85184 2.85714,0 0.41799,-0.83598 0,-14.80429 0,-17.14285 0,-0.95238 -0.67344,-2.18371 0,-2.85715 0.67343,-0.67343 2.18371,0.67344 2.85714,0 1.42857,-1.42857 -1.42857,-7.14285 0,-8.57142 0.67344,-0.67344 2.18371,-0.67344 2.85714,0 0.67344,0.67343 -0.67343,2.1837 0,2.85714 0.67344,0.67343 2.18371,-0.67344 2.85715,0 1.42857,1.42857 -1.42857,7.14286 0,8.57143 0.67343,0.67343 2.1837,-0.67344 2.85714,0 1.34687,1.34687 -0.85184,4.01061 0,5.71428 0.60234,1.20468 2.2548,1.65247 2.85714,2.85715 1.14286,2.28571 -1.14285,6.28571 0,8.57142 0.60234,1.20468 2.25481,1.65247 2.85715,2.85715 0.85183,1.70367 -0.85184,4.01061 0,5.71428 0.60233,1.20468 2.2548,1.65247 2.85714,2.85715 0.51662,1.03323 0,12.29845 0,14.28571 0,0.95238 -0.67344,2.18371 0,2.85714 0.67343,0.67344 2.18371,-0.67343 2.85714,0 1.34687,1.34687 -1.34687,4.36742 0,5.71429 0.67344,0.67343 2.18371,0.67343 2.85714,0 0.67344,-0.67344 -0.67343,-2.18371 0,-2.85714 0.67344,-0.67344 2.18371,0.67343 2.85715,0 0.67343,-0.67344 -0.67344,-2.18371 0,-2.85715 0.67343,-0.67343 2.1837,0.67344 2.85714,0 0.67344,-0.67343 -0.67344,-2.18371 0,-2.85714 0.67344,-0.67344 2.00531,0.42592 2.85714,0 1.20468,-0.60234 1.65247,-2.2548 2.85715,-2.85714 0.85183,-0.42592 2.1837,0.67343 2.85714,0 0.67343,-0.67344 -0.67344,-2.18371 0,-2.85715 0.67343,-0.67343 2.00531,0.42592 2.85714,0 1.20468,-0.60233 1.65247,-2.2548 2.85714,-2.85714 0.85184,-0.42592 2.00531,0.42592 2.85715,0 1.20467,-0.60234 1.73648,-2.11003 2.85714,-2.85714 1.77192,-1.18128 3.94236,-1.67586 5.71429,-2.85714 1.12066,-0.74711 1.65246,-2.25481 2.85714,-2.85715 0.85183,-0.42592 2.18371,0.67344 2.85714,0 0.67344,-0.67343 -0.67343,-2.18371 0,-2.85714 0.67344,-0.67344 2.00531,0.42592 2.85714,0 1.20468,-0.60234 1.57939,-2.43123 2.85715,-2.85714 1.80701,-0.60234 4.01061,0.85183 5.71428,0 0.85184,-0.42592 -0.42591,-2.00531 0,-2.85715 0.60234,-1.20467 2.25481,-1.65246 2.85715,-2.85714 0.42591,-0.85183 -0.42592,-2.00531 0,-2.85714 0.60233,-1.20468 2.2548,-1.65247 2.85714,-2.85714 0.42592,-0.85184 -0.67344,-2.18371 0,-2.85715 0.67343,-0.67343 2.18371,0.67344 2.85714,0 1.70752,-1.70751 -3.08823,-5.71428 2.85714,-5.71428 0.95239,0 0,1.90476 0,2.85714 0,0.95238 0,1.90476 0,2.85714 0,6.70051 0.67344,-1.34687 -2.85714,5.71429 -0.85183,1.70367 0.85184,4.01061 0,5.71428 -0.60234,1.20468 -2.2548,1.65247 -2.85714,2.85715 -1.14286,2.28571 1.14286,6.28571 0,8.57143 -0.60234,1.20467 -2.25481,1.65246 -2.85714,2.85714 -0.85184,1.70367 0.85183,4.01061 0,5.71428 -0.60234,1.20468 -2.25481,1.65247 -2.85715,2.85715 -0.77498,1.54996 0.78178,10.64679 0,11.42857 -0.67343,0.67343 -2.1837,-0.67344 -2.85714,0 -0.67344,0.67343 0.67344,2.18371 0,2.85714 -0.67344,0.67344 -2.18371,-0.67343 -2.85714,0 -0.67344,0.67344 0.67343,2.18371 0,2.85714 -0.67344,0.67344 -2.18371,-0.67343 -2.85715,0 -0.67343,0.67344 -0.67343,2.18371 0,2.85715 0.67344,0.67343 1.90477,0 2.85715,0 11.16128,0 0.30163,0.85183 11.42857,-2.85715 1.80701,-0.60233 4.36741,1.34687 5.71428,0 0.67344,-0.67343 -0.67343,-2.1837 0,-2.85714 0.67344,-0.67343 2.00531,0.42592 2.85715,0 1.20467,-0.60234 1.65246,-2.2548 2.85714,-2.85714 0.85184,-0.42592 1.90476,0 2.85714,0 2.85715,0 5.86091,0.90351 8.57143,0 0.90351,-0.30117 -0.67343,-2.18371 0,-2.85714 0.33775,-0.33775 15.05164,0.5228 17.14286,0 0.89263,-0.22316 3.37558,-5.19585 5.71428,-2.85715 2.78209,2.78209 -4.89803,6.93893 -5.71428,8.57143 -0.85184,1.70367 1.34687,4.36742 0,5.71429 -0.67344,0.67343 -2.00531,-0.42592 -2.85714,0 -2.40936,1.20467 -3.30494,4.50961 -5.71429,5.71428 -0.85184,0.42592 -2.18371,-0.67343 -2.85714,0 -0.67344,0.67344 0.85183,2.43123 0,2.85715 -1.70367,0.85183 -4.01062,-0.85184 -5.71429,0 -0.85183,0.42591 0.67344,2.1837 0,2.85714 -0.67343,0.67343 -2.18371,-0.67344 -2.85714,0 -0.67344,0.67343 0.67343,2.18371 0,2.85714 -7.61905,0 0.95238,-0.95238 -2.85714,2.85714 -1.34687,1.34687 -4.36742,-1.34687 -5.71429,0 -0.67344,0.67344 0.67344,2.18371 0,2.85715 -1.34687,1.34687 -4.36742,-1.34687 -5.71429,0 -0.67343,0.67343 0.67344,2.1837 0,2.85714 -5.91153,5.91153 0.23109,-9.0336 -5.71428,2.85714 -0.42592,0.85184 0.67343,2.18371 0,2.85715 -1.34687,1.34687 -4.36742,-1.34687 -5.71429,0 -0.67343,0.67343 0.67344,2.1837 0,2.85714 -3.80952,3.80952 -2.85714,-4.76191 -2.85714,2.85714 0,0.95238 0,1.90476 0,2.85714 0,0.95238 0.95238,2.85715 0,2.85715 -0.95238,0 0.95238,-2.85715 0,-2.85715 -5.94537,0 -1.14963,4.00677 -2.85714,5.71429 -6.56612,6.56612 -5.71429,-0.74068 -5.71429,5.71429"
       id="path3008"
       inkscape:connector-curvature="0" />
    <path
       style="fill:none;stroke:#000000;stroke-width:1px;stroke-linecap:butt;stroke-linejoin:miter;stroke-opacity:1"
       d="M 452.54834,569.50927 C 450.52803,409.90516 450.52803,409.90516 450.52803,409.90516"
       id="path3010"
       inkscape:connector-curvature="0" />
  </g>
</svg>
